<svg width="57" height="57" viewBox="0 0 57 57" fill="none" xmlns="http://www.w3.org/2000/svg">
<rect width="57" height="57" rx="12" fill="#1D361F"/>
<path d="M38.8906 20H19.1094C17.9477 20 17 20.8383 17 21.8678V34.32C17 35.3461 17.9435 36.1879 19.1094 36.1879H38.8906C40.0494 36.1879 41 35.3524 41 34.32V21.8678C41 20.8418 40.0565 20 38.8906 20ZM38.5993 21.2452L29.0447 29.7058L19.4075 21.2452H38.5993ZM18.4062 34.0622V22.1197L25.1787 28.0653L18.4062 34.0622ZM19.4006 34.9427L26.1773 28.9419L28.5519 31.0265C28.8267 31.2678 29.2703 31.267 29.5441 31.0246L31.8594 28.9744L38.5994 34.9427H19.4006ZM39.5938 34.0622L32.8537 28.0939L39.5938 22.1257V34.0622Z" fill="white"/>
</svg>
