<svg width="57" height="57" viewBox="0 0 57 57" fill="none" xmlns="http://www.w3.org/2000/svg">
<rect width="57" height="57" rx="12" fill="#1D361F"/>
<g clip-path="url(#clip0_58_101)">
<path d="M29 19.1609C32.2063 19.1609 32.5859 19.175 33.8469 19.2312C35.0188 19.2828 35.6516 19.4797 36.0734 19.6438C36.6313 19.8594 37.0344 20.1219 37.4516 20.5391C37.8734 20.9609 38.1313 21.3594 38.3469 21.9172C38.5109 22.3391 38.7078 22.9766 38.7594 24.1437C38.8156 25.4094 38.8297 25.7891 38.8297 28.9906C38.8297 32.1969 38.8156 32.5766 38.7594 33.8375C38.7078 35.0094 38.5109 35.6422 38.3469 36.0641C38.1313 36.6219 37.8687 37.025 37.4516 37.4422C37.0297 37.8641 36.6313 38.1219 36.0734 38.3375C35.6516 38.5016 35.0141 38.6984 33.8469 38.75C32.5813 38.8062 32.2016 38.8203 29 38.8203C25.7938 38.8203 25.4141 38.8062 24.1531 38.75C22.9813 38.6984 22.3484 38.5016 21.9266 38.3375C21.3688 38.1219 20.9656 37.8594 20.5484 37.4422C20.1266 37.0203 19.8688 36.6219 19.6531 36.0641C19.4891 35.6422 19.2922 35.0047 19.2406 33.8375C19.1844 32.5719 19.1703 32.1922 19.1703 28.9906C19.1703 25.7844 19.1844 25.4047 19.2406 24.1437C19.2922 22.9719 19.4891 22.3391 19.6531 21.9172C19.8688 21.3594 20.1313 20.9562 20.5484 20.5391C20.9703 20.1172 21.3688 19.8594 21.9266 19.6438C22.3484 19.4797 22.9859 19.2828 24.1531 19.2312C25.4141 19.175 25.7938 19.1609 29 19.1609ZM29 17C25.7422 17 25.3344 17.0141 24.0547 17.0703C22.7797 17.1266 21.9031 17.3328 21.1438 17.6281C20.3516 17.9375 19.6813 18.3453 19.0156 19.0156C18.3453 19.6813 17.9375 20.3516 17.6281 21.1391C17.3328 21.9031 17.1266 22.775 17.0703 24.05C17.0141 25.3344 17 25.7422 17 29C17 32.2578 17.0141 32.6656 17.0703 33.9453C17.1266 35.2203 17.3328 36.0969 17.6281 36.8563C17.9375 37.6484 18.3453 38.3188 19.0156 38.9844C19.6813 39.65 20.3516 40.0625 21.1391 40.3672C21.9031 40.6625 22.775 40.8687 24.05 40.925C25.3297 40.9812 25.7375 40.9953 28.9953 40.9953C32.2531 40.9953 32.6609 40.9812 33.9406 40.925C35.2156 40.8687 36.0922 40.6625 36.8516 40.3672C37.6391 40.0625 38.3094 39.65 38.975 38.9844C39.6406 38.3188 40.0531 37.6484 40.3578 36.8609C40.6531 36.0969 40.8594 35.225 40.9156 33.95C40.9719 32.6703 40.9859 32.2625 40.9859 29.0047C40.9859 25.7469 40.9719 25.3391 40.9156 24.0594C40.8594 22.7844 40.6531 21.9078 40.3578 21.1484C40.0625 20.3516 39.6547 19.6813 38.9844 19.0156C38.3188 18.35 37.6484 17.9375 36.8609 17.6328C36.0969 17.3375 35.225 17.1313 33.95 17.075C32.6656 17.0141 32.2578 17 29 17Z" fill="white"/>
<path d="M29 22.8359C25.5969 22.8359 22.8359 25.5969 22.8359 29C22.8359 32.4031 25.5969 35.1641 29 35.1641C32.4031 35.1641 35.1641 32.4031 35.1641 29C35.1641 25.5969 32.4031 22.8359 29 22.8359ZM29 32.9984C26.7922 32.9984 25.0016 31.2078 25.0016 29C25.0016 26.7922 26.7922 25.0016 29 25.0016C31.2078 25.0016 32.9984 26.7922 32.9984 29C32.9984 31.2078 31.2078 32.9984 29 32.9984Z" fill="white"/>
<path d="M36.8469 22.5921C36.8469 23.389 36.2 24.0312 35.4078 24.0312C34.6109 24.0312 33.9688 23.3843 33.9688 22.5921C33.9688 21.7953 34.6156 21.1531 35.4078 21.1531C36.2 21.1531 36.8469 21.8 36.8469 22.5921Z" fill="white"/>
</g>
<defs>
<clipPath id="clip0_58_101">
<rect width="24" height="24" fill="white" transform="translate(17 17)"/>
</clipPath>
</defs>
</svg>
