<svg width="57" height="57" viewBox="0 0 57 57" fill="none" xmlns="http://www.w3.org/2000/svg">
<rect width="57" height="57" rx="12" fill="#1D361F"/>
<g clip-path="url(#clip0_58_100)">
<path d="M39.2234 17H18.7719C17.7922 17 17 17.7734 17 18.7297V39.2656C17 40.2219 17.7922 41 18.7719 41H39.2234C40.2031 41 41 40.2219 41 39.2703V18.7297C41 17.7734 40.2031 17 39.2234 17ZM24.1203 37.4516H20.5578V25.9953H24.1203V37.4516ZM22.3391 24.4344C21.1953 24.4344 20.2719 23.5109 20.2719 22.3719C20.2719 21.2328 21.1953 20.3094 22.3391 20.3094C23.4781 20.3094 24.4016 21.2328 24.4016 22.3719C24.4016 23.5062 23.4781 24.4344 22.3391 24.4344ZM37.4516 37.4516H33.8937V31.8828C33.8937 30.5562 33.8703 28.8453 32.0422 28.8453C30.1906 28.8453 29.9094 30.2937 29.9094 31.7891V37.4516H26.3563V25.9953H29.7687V27.5609H29.8156C30.2891 26.6609 31.4516 25.7094 33.1813 25.7094C36.7859 25.7094 37.4516 28.0813 37.4516 31.1656V37.4516Z" fill="white"/>
</g>
<defs>
<clipPath id="clip0_58_100">
<rect width="24" height="24" fill="white" transform="translate(17 17)"/>
</clipPath>
</defs>
</svg>
