<svg width="57" height="57" viewBox="0 0 57 57" fill="none" xmlns="http://www.w3.org/2000/svg">
<rect width="57" height="57" rx="12" fill="#1D361F"/>
<path d="M19.2854 35.2864L19.7326 35.51L19.8709 35.2333L19.6851 34.9861L19.2854 35.2864ZM21.5708 37.5718L21.8711 37.172L21.6238 36.9862L21.3472 37.1245L21.5708 37.5718ZM17 39.8571L16.5528 39.6335C16.4565 39.826 16.4943 40.0585 16.6464 40.2107C16.7986 40.3629 17.0311 40.4006 17.2236 40.3044L17 39.8571ZM23.8571 23.8572L23.5571 23.4572C23.4312 23.5516 23.3571 23.6998 23.3571 23.8572H23.8571ZM33 33V33.5C33.1475 33.5 33.2875 33.4349 33.3825 33.3221L33 33ZM24.5674 23.3245L24.2674 22.9245L24.5674 23.3245ZM26.3871 24.097L26.8833 24.035L26.3871 24.097ZM26.645 26.1597L27.1411 26.0976L26.645 26.1597ZM26.319 27.1095L25.9655 26.756L26.319 27.1095ZM33.5066 32.3984L33.8891 32.7205L33.5066 32.3984ZM32.7979 30.5314L32.7255 31.0261L32.7979 30.5314ZM30.7107 30.226L30.7831 29.7312L30.7107 30.226ZM29.7371 30.5487L30.0906 30.9022V30.9022L29.7371 30.5487ZM16.5 28.4286C16.5 31.1137 17.3878 33.5929 18.8856 35.5867L19.6851 34.9861C18.3129 33.1595 17.5 30.8897 17.5 28.4286H16.5ZM28.4286 16.5C21.8406 16.5 16.5 21.8406 16.5 28.4286H17.5C17.5 22.3929 22.3929 17.5 28.4286 17.5V16.5ZM40.3572 28.4286C40.3572 21.8406 35.0166 16.5 28.4286 16.5V17.5C34.4643 17.5 39.3572 22.3929 39.3572 28.4286H40.3572ZM28.4286 40.3571C35.0166 40.3571 40.3572 35.0165 40.3572 28.4286H39.3572C39.3572 34.4643 34.4643 39.3571 28.4286 39.3571V40.3571ZM21.2705 37.9715C23.2643 39.4694 25.7435 40.3571 28.4286 40.3571V39.3571C25.9675 39.3571 23.6977 38.5442 21.8711 37.172L21.2705 37.9715ZM17.2236 40.3044L21.7944 38.019L21.3472 37.1245L16.7764 39.4099L17.2236 40.3044ZM18.8382 35.0628L16.5528 39.6335L17.4472 40.0808L19.7326 35.51L18.8382 35.0628ZM23.3571 23.8572V25H24.3571V23.8572H23.3571ZM31.8571 33.5H33V32.5H31.8571V33.5ZM23.3571 25C23.3571 29.6944 27.1627 33.5 31.8571 33.5V32.5C27.715 32.5 24.3571 29.1421 24.3571 25H23.3571ZM24.1571 24.2572L24.8674 23.7245L24.2674 22.9245L23.5571 23.4572L24.1571 24.2572ZM25.891 24.159L26.1488 26.2217L27.1411 26.0976L26.8833 24.035L25.891 24.159ZM25.9655 26.756L24.6464 28.075L25.3536 28.7821L26.6726 27.4631L25.9655 26.756ZM26.1488 26.2217C26.1734 26.4185 26.1058 26.6157 25.9655 26.756L26.6726 27.4631C27.0311 27.1046 27.204 26.6007 27.1411 26.0976L26.1488 26.2217ZM24.8674 23.7245C25.2623 23.4283 25.8298 23.6692 25.891 24.159L26.8833 24.035C26.7268 22.7833 25.2765 22.1676 24.2674 22.9245L24.8674 23.7245ZM33.3825 33.3221L33.8891 32.7205L33.1242 32.0763L32.6175 32.6779L33.3825 33.3221ZM32.8703 30.0367L30.7831 29.7312L30.6383 30.7207L32.7255 31.0261L32.8703 30.0367ZM29.3835 30.1951L28.075 31.5036L28.7821 32.2107L30.0906 30.9022L29.3835 30.1951ZM30.7831 29.7312C30.2695 29.6561 29.7506 29.8281 29.3835 30.1951L30.0906 30.9022C30.2342 30.7586 30.4373 30.6913 30.6383 30.7207L30.7831 29.7312ZM33.8891 32.7205C34.7183 31.7357 34.1442 30.2231 32.8703 30.0367L32.7255 31.0261C33.224 31.0991 33.4487 31.691 33.1242 32.0763L33.8891 32.7205Z" fill="white"/>
</svg>
