<svg width="15" height="14" viewBox="0 0 15 14" fill="none" xmlns="http://www.w3.org/2000/svg">
<path d="M7.53029 8.64998L8.35525 9.47494L10.8301 7.00006L8.35525 4.52519L7.53029 5.35015L8.59688 6.41673H4.20021V7.5834H8.59687L7.53029 8.64998Z" fill="#1D361F"/>
<path fill-rule="evenodd" clip-rule="evenodd" d="M12.0373 11.5373C14.5431 9.03144 14.5431 4.96864 12.0373 2.46277C9.53141 -0.043092 5.4686 -0.043092 2.96273 2.46277C0.45687 4.96864 0.45687 9.03144 2.96273 11.5373C5.4686 14.0432 9.53141 14.0432 12.0373 11.5373ZM11.2123 10.7124C13.2626 8.6621 13.2626 5.33798 11.2123 3.28773C9.16206 1.23748 5.83794 1.23748 3.78769 3.28773C1.73744 5.33798 1.73744 8.6621 3.78769 10.7124C5.83794 12.7626 9.16206 12.7626 11.2123 10.7124Z" fill="#1D361F"/>
</svg>
