<svg width="15" height="14" viewBox="0 0 15 14" fill="none" xmlns="http://www.w3.org/2000/svg">
<path d="M7.53028 8.64986L8.35524 9.47482L10.8301 6.99994L8.35524 4.52507L7.53028 5.35003L8.59687 6.41661H4.2002V7.58328H8.59687L7.53028 8.64986Z" fill="#C4C7B6"/>
<path fill-rule="evenodd" clip-rule="evenodd" d="M12.0373 11.5372C14.5431 9.03132 14.5431 4.96851 12.0373 2.46265C9.5314 -0.0432141 5.46859 -0.0432141 2.96273 2.46265C0.456862 4.96851 0.456862 9.03132 2.96273 11.5372C5.46859 14.0431 9.5314 14.0431 12.0373 11.5372ZM11.2123 10.7122C13.2626 8.66198 13.2626 5.33786 11.2123 3.28761C9.16205 1.23736 5.83794 1.23736 3.78768 3.28761C1.73743 5.33786 1.73743 8.66198 3.78768 10.7122C5.83794 12.7625 9.16205 12.7625 11.2123 10.7122Z" fill="#C4C7B6"/>
</svg>
