<svg width="630" height="107" viewBox="0 0 630 107" fill="none" xmlns="http://www.w3.org/2000/svg">
<path d="M23.1678 87.1016L6.3902 65.2175L12.8311 63.3011L24.3661 79.0662L25.4447 59.5481L31.9239 57.6203L29.8388 85.1168L23.1678 87.1016Z" fill="#DFC8B6"/>
<path d="M48.0666 79.9371L41.3451 55.0694L47.562 53.3891L54.2835 78.2567L48.0666 79.9371Z" fill="#DFC8B6"/>
<path d="M63.4683 75.7808L57.3511 50.7577L62.7132 49.4468L77.0167 61.8037L73.3596 46.8442L79.6543 45.3054L85.7715 70.3285L80.3705 71.6488L66.0765 59.3309L69.724 74.2515L63.4683 75.7808Z" fill="#DFC8B6"/>
<path d="M90.2658 41.1423L91.8713 32.7651L97.0291 31.6358L95.111 40.0815L90.2658 41.1423ZM95.5263 68.1624L90.017 42.9984L96.308 41.6211L101.817 66.7851L95.5263 68.1624Z" fill="#DFC8B6"/>
<path d="M123.992 62.6667C119.569 63.5302 115.973 63.0639 113.204 61.2678C110.457 59.4404 108.69 56.5114 107.903 52.4809C107.08 48.2671 107.569 44.7889 109.371 42.0463C111.198 39.2986 114.362 37.4853 118.864 36.6065C120.408 36.305 121.805 36.1545 123.055 36.1551C124.331 36.1505 125.57 36.2346 126.773 36.4075L127.853 41.943C125.392 41.4453 122.905 41.4417 120.393 41.9322C117.776 42.4432 115.975 43.4469 114.99 44.9433C114.031 46.4346 113.815 48.5281 114.341 51.2239C114.842 53.7888 115.851 55.5481 117.368 56.5017C118.886 57.4552 120.914 57.6842 123.453 57.1886C124.683 56.9485 125.879 56.6062 127.043 56.1618C128.201 55.6912 129.296 55.1105 130.33 54.4197L131.418 59.9944C130.39 60.5754 129.282 61.0907 128.093 61.5402C126.903 61.9898 125.537 62.3652 123.992 62.6667Z" fill="#DFC8B6"/>
<path d="M140.551 59.2124L136.191 33.8239L142.538 32.734L146.898 58.1225L140.551 59.2124Z" fill="#DFC8B6"/>
<path d="M167.849 55.2232C165.475 55.5719 163.347 55.4936 161.467 54.9881C159.613 54.4787 158.088 53.5438 156.891 52.1833C155.72 50.8189 154.974 49.0418 154.652 46.852L152.333 31.0614L158.705 30.1256L160.937 45.3225C161.197 47.0902 161.852 48.3416 162.903 49.0766C163.955 49.8117 165.338 50.0532 167.053 49.8013C168.768 49.5495 170.023 48.9204 170.818 47.9141C171.614 46.9078 171.882 45.5208 171.622 43.7531L169.39 28.5561L175.762 27.6203L178.081 43.4109C178.403 45.6007 178.186 47.5193 177.431 49.1665C176.702 50.8099 175.51 52.144 173.854 53.1687C172.225 54.1896 170.224 54.8744 167.849 55.2232Z" fill="#DFC8B6"/>
<path d="M197.081 51.355C195.386 51.552 193.781 51.6042 192.267 51.5117C190.782 51.4426 189.482 51.2312 188.367 50.8775L187.735 45.4341C188.959 45.802 190.291 46.0633 191.732 46.218C193.199 46.3697 194.569 46.3716 195.84 46.2239C197.43 46.0392 198.591 45.7566 199.326 45.376C200.086 44.9922 200.41 44.3104 200.296 43.3303C200.219 42.6681 199.959 42.1614 199.515 41.8102C199.098 41.456 198.436 41.184 197.528 40.9942C196.643 40.7748 195.435 40.5394 193.902 40.2879C192.092 39.9613 190.634 39.5401 189.527 39.0245C188.417 38.4823 187.583 37.7738 187.025 36.899C186.467 36.0243 186.11 34.9114 185.953 33.5605C185.669 31.1236 186.327 29.1546 187.924 27.6535C189.521 26.1524 192.029 25.2034 195.446 24.8063C196.929 24.634 198.386 24.5854 199.818 24.6607C201.247 24.7095 202.415 24.8288 203.323 25.0186L203.96 30.5017C202.769 30.1837 201.578 29.9865 200.388 29.91C199.224 29.8305 198.099 29.8538 197.013 29.98C195.583 30.1462 194.433 30.414 193.563 30.7836C192.72 31.15 192.353 31.81 192.464 32.7636C192.529 33.3199 192.74 33.7517 193.098 34.0591C193.453 34.3401 194.03 34.5683 194.828 34.744C195.654 34.9165 196.764 35.1097 198.158 35.3236C200.315 35.6367 201.996 36.1259 203.201 36.7913C204.402 37.4302 205.275 38.2416 205.819 39.2254C206.36 40.1827 206.704 41.2971 206.852 42.5685C207.114 44.82 206.452 46.7493 204.867 48.3563C203.279 49.9369 200.683 50.9364 197.081 51.355Z" fill="#DFC8B6"/>
<path d="M242.607 47.0514C238.431 47.3492 235.177 46.5119 232.844 44.5395C230.511 42.5671 229.184 39.3333 228.864 34.838C228.524 30.0768 229.371 26.581 231.404 24.3507C233.437 22.1205 236.542 20.8565 240.718 20.5587C244.894 20.2609 248.147 21.0716 250.476 22.9908C252.805 24.91 254.139 28.2502 254.479 33.0115C254.799 37.5067 253.945 40.8961 251.915 43.1795C249.886 45.463 246.783 46.7536 242.607 47.0514ZM242.217 41.5853C244.372 41.4317 245.898 40.708 246.795 39.4142C247.716 38.092 248.083 36.1142 247.895 33.4809C247.69 30.6082 247.041 28.6227 245.947 27.5244C244.877 26.3976 243.265 25.9111 241.111 26.0647C238.93 26.2202 237.376 26.9325 236.451 28.2015C235.55 29.4421 235.202 31.4987 235.407 34.3714C235.595 37.0047 236.225 38.9114 237.299 40.0914C238.397 41.2428 240.036 41.7408 242.217 41.5853Z" fill="#DFC8B6"/>
<path d="M264.436 45.2831L263.379 19.5448L269.814 19.2806L270.667 40.0631L282.817 39.5643L283.02 44.5202L264.436 45.2831Z" fill="#DFC8B6"/>
<path d="M291.376 44.3318L290.867 18.5768L297.306 18.4495L297.815 44.2044L291.376 44.3318Z" fill="#DFC8B6"/>
<path d="M316.364 44.0596L306.664 18.2465L313.384 18.283L319.844 36.7184L326.544 18.3546L333.304 18.3913L323.324 44.0974L316.364 44.0596Z" fill="#DFC8B6"/>
<path d="M342.259 44.3954L343.202 18.6526L362.189 19.3475L362.007 24.3042L349.456 23.8448L349.258 29.2412L360.331 29.6464L360.147 34.6831L349.074 34.2778L348.877 39.6742L361.428 40.1336L361.247 45.0903L342.259 44.3954Z" fill="#DFC8B6"/>
<path d="M370.19 45.5812L371.692 19.865L378.121 20.2405L376.619 45.9567L370.19 45.5812Z" fill="#DFC8B6"/>
<path d="M386.117 46.5292L388.216 20.8548L401.053 21.9042C404.083 22.1519 406.25 23.1318 407.555 24.8438C408.86 26.5558 409.402 28.754 409.183 31.4384C409.042 33.1659 408.479 34.645 407.496 35.8757C406.512 37.1063 405.237 37.9786 403.67 38.4926C404.018 38.8154 404.283 39.1715 404.465 39.561C404.676 39.9261 404.889 40.4384 405.102 41.098L407.565 48.2826L400.867 47.735L398.532 40.9622C398.338 40.3845 398.065 39.9608 397.712 39.6912C397.362 39.395 396.841 39.2187 396.15 39.1622L393.2 38.921L392.535 47.0539L386.117 46.5292ZM393.604 33.9775L398.348 34.3653C399.598 34.4675 400.593 34.2411 401.334 33.6863C402.103 33.1071 402.54 32.1796 402.645 30.9039C402.855 28.3258 401.725 26.9357 399.253 26.7337L394.23 26.323L393.604 33.9775Z" fill="#DFC8B6"/>
<path d="M416.145 49.0727L428.857 24.6017L435.771 25.3948L442.612 52.1082L435.936 51.3425L434.296 45.2762L425.752 44.2962L422.822 49.8384L416.145 49.0727ZM427.169 39.6675L433.964 40.4469L431.568 31.1533L427.169 39.6675Z" fill="#DFC8B6"/>
<path d="M465.458 55.3128L469.578 29.8846L482.293 31.945C485.293 32.4313 487.377 33.5794 488.542 35.3891C489.708 37.1989 490.075 39.4331 489.644 42.0917C489.367 43.8028 488.689 45.2328 487.612 46.3819C486.534 47.5309 485.194 48.2997 483.591 48.6883C483.912 49.0376 484.149 49.4136 484.3 49.8162C484.481 50.1968 484.652 50.7243 484.813 51.3988L486.7 58.7554L480.067 57.6804L478.273 50.7442C478.126 50.153 477.887 49.7091 477.557 49.4125C477.231 49.0895 476.726 48.8726 476.042 48.7617L473.12 48.2881L471.815 56.343L465.458 55.3128ZM473.913 43.392L478.612 44.1535C479.849 44.354 480.859 44.207 481.642 43.7125C482.455 43.1959 482.964 42.3058 483.169 41.0423C483.582 38.489 482.565 37.0139 480.117 36.6172L475.142 35.8109L473.913 43.392Z" fill="#DFC8B6"/>
<path d="M507.717 63.0806C503.608 62.2784 500.684 60.6209 498.947 58.1081C497.21 55.5953 496.773 52.1274 497.636 47.7042C498.551 43.0193 500.28 39.8656 502.825 38.2431C505.37 36.6206 508.697 36.2105 512.806 37.0127C516.915 37.8149 519.843 39.4462 521.591 41.9066C523.338 44.367 523.755 47.9397 522.84 52.6246C521.977 57.0478 520.268 60.0968 517.713 61.7716C515.158 63.4464 511.826 63.8828 507.717 63.0806ZM508.767 57.7021C510.887 58.116 512.548 57.8155 513.752 56.8006C514.986 55.7646 515.857 53.9511 516.363 51.36C516.914 48.5334 516.805 46.4472 516.036 45.1014C515.297 43.7346 513.868 42.8443 511.748 42.4304C509.602 42.0114 507.917 42.2937 506.692 43.2774C505.499 44.2399 504.626 46.1345 504.075 48.9611C503.569 51.5522 503.68 53.5573 504.408 54.9765C505.168 56.3746 506.621 57.2831 508.767 57.7021Z" fill="#DFC8B6"/>
<path d="M541.875 70.3466C537.481 69.3436 534.383 67.4601 532.579 64.6961C530.808 61.9121 530.379 58.5182 531.293 54.5145C532.249 50.3288 534.105 47.3473 536.863 45.5699C539.647 43.7984 543.275 43.4231 547.747 44.4438C549.281 44.794 550.619 45.2226 551.762 45.7296C552.93 46.2425 554.029 46.8215 555.058 47.4667L553.802 52.9652C551.754 51.513 549.482 50.502 546.986 49.9322C544.387 49.3388 542.333 49.5265 540.827 50.4955C539.346 51.4704 538.3 53.2967 537.689 55.9745C537.107 58.5223 537.317 60.5395 538.317 62.0262C539.318 63.5129 541.08 64.5441 543.601 65.1198C544.823 65.3987 546.056 65.5707 547.299 65.6357C548.549 65.6747 549.786 65.5879 551.01 65.3751L549.746 70.9127C548.571 71.0274 547.349 71.0492 546.08 70.9783C544.81 70.9073 543.409 70.6968 541.875 70.3466Z" fill="#DFC8B6"/>
<path d="M558.412 73.8317L564.925 48.9084L571.156 50.5365L568.577 60.4052L578.329 62.9534L580.908 53.0848L587.139 54.7128L580.627 79.6361L574.396 78.008L576.974 68.1393L567.222 65.591L564.643 75.4597L558.412 73.8317Z" fill="#DFC8B6"/>
<path d="M589.476 82.0597L606.253 60.1756L612.924 62.1604L615.009 89.6569L608.568 87.7405L608.01 81.4814L599.767 79.0288L595.916 83.9761L589.476 82.0597ZM601.968 74.7174L608.524 76.6681L607.782 67.0991L601.968 74.7174Z" fill="#DFC8B6"/>
<path d="M37 104.5C251.5 53 305 30.5 606.5 104.5" stroke="#DFC8B6" stroke-width="5" stroke-linecap="round"/>
</svg>
