<svg width="128" height="128" viewBox="0 0 128 128" fill="none" xmlns="http://www.w3.org/2000/svg">
<path d="M58.6666 85.3334H69.3333V62.9334L77.8666 71.4667L85.3333 64.0001L64 42.6667L42.6666 64.0001L50.1333 71.4667L58.6666 62.9334V85.3334ZM64 117.333C56.6222 117.333 49.6889 115.933 43.2 113.131C36.7111 110.329 31.0666 106.53 26.2666 101.733C21.4666 96.937 17.6675 91.2925 14.8693 84.8001C12.0711 78.3076 10.6702 71.3743 10.6666 64.0001C10.6631 56.6259 12.064 49.6925 14.8693 43.2001C17.6746 36.7076 21.4737 31.0632 26.2666 26.2667C31.0595 21.4703 36.704 17.6712 43.2 14.8694C49.696 12.0676 56.6293 10.6667 64 10.6667C71.3706 10.6667 78.304 12.0676 84.8 14.8694C91.296 17.6712 96.9404 21.4703 101.733 26.2667C106.526 31.0632 110.327 36.7076 113.136 43.2001C115.945 49.6925 117.344 56.6259 117.333 64.0001C117.323 71.3743 115.922 78.3076 113.131 84.8001C110.34 91.2925 106.54 96.937 101.733 101.733C96.9262 106.53 91.2817 110.331 84.8 113.136C78.3182 115.941 71.3849 117.341 64 117.333Z" fill="#859B48"/>
</svg>
